#!OML:ASF F:\VICON\USERDATA\INSTALL\Justin_Nancy\Justin_Nancy.ASF
:FULLY-SPECIFIED
:DEGREES
227
root -9.06878 17.6743 -2.73694 -0.287574 -6.77284 0.341832
lowerback 5.35013 1.62839 -1.38572
upperback -0.0373497 2.12475 1.31571
thorax -3.13841 1.08904 1.96266
lowerneck -17.8872 -3.68909 -8.69198
upperneck 24.0354 -3.98206 5.02862
head 11.0183 -2.00039 2.69808
rclavicle 4.03781e-015 -1.19271e-014
rhumerus -27.6678 -11.9789 -81.9931
rradius 32.6822
rwrist 6.60958
rhand -11.5944 8.63556
rfingers 7.12502
rthumb 14.4478 -20.8415
lclavicle 4.03781e-015 -1.19271e-014
lhumerus -31.9748 12.3565 85.0202
lradius 21.4819
lwrist -12.7198
lhand -13.986 25.8458
lfingers 7.12502
lthumb 12.1426 55.4735
rfemur -6.70414 -1.27428 20.1804
rtibia 54.1548
rfoot 6.50909 4.73328
rtoes 9.07882
lfemur -16.4168 -0.660877 -24.979
ltibia 21.2338
lfoot -1.83532 -3.79203
ltoes 0.594607
228
root -9.05335 17.6805 -2.61546 -0.35106 -6.84513 0.741692
lowerback 5.4011 1.63519 -1.77687
upperback -0.0891773 2.10488 1.19025
thorax -3.22921 1.0856 2.05219
lowerneck -17.8044 -3.62713 -8.62946
upperneck 23.9937 -3.912 5.00096
head 10.9787 -1.96697 2.6881
rclavicle 1.16786e-015 5.96354e-015
rhumerus -27.8043 -11.6189 -82.1702
rradius 32.5077
rwrist 6.40332
rhand -10.9851 7.63884
rfingers 7.12502
rthumb 15.0349 -21.7953
lclavicle 1.16786e-015 5.96354e-015
lhumerus -31.9403 11.6362 85.1625
lradius 21.8261
lwrist -12.2774
lhand -14.8318 24.4452
lfingers 7.12502
lthumb 11.327 54.1193
rfemur -8.21202 -1.41296 19.5056
rtibia 56.2585
rfoot 6.37524 3.87604
rtoes 8.70528
lfemur -15.8435 -0.655804 -25.542
ltibia 21.0346
lfoot -2.36004 -3.5363
ltoes 2.4584
229
root -9.03909 17.6694 -2.49811 -0.386608 -6.76279 1.09716
lowerback 5.38682 1.58634 -2.13796
upperback -0.0749735 2.01435 1.10294
thorax -3.2115 1.04537 2.17303
lowerneck -17.8759 -3.64732 -8.64533
upperneck 23.9868 -3.91354 4.94446
head 10.9897 -1.97507 2.66906
rclavicle -1.00014e-014 -4.37326e-015
rhumerus -27.9255 -11.3142 -82.2761
rradius 32.3512
rwrist 6.73829
rhand -12.0796 7.16064
rfingers 7.12502
rthumb 13.9802 -22.3493
lclavicle -1.00014e-014 -4.37326e-015
lhumerus -31.8786 11.1583 85.3449
lradius 22.2672
lwrist -12.0932
lhand -15.1375 24.1653
lfingers 7.12502
lthumb 11.0322 53.8554
rfemur -9.33286 -1.75612 18.9165
rtibia 58.246
rfoot 5.56589 2.48301
rtoes 7.13584
lfemur -15.4054 -0.452761 -26.1049
ltibia 20.9677
lfoot -2.66616 -3.59482
ltoes 3.9247
230
root -9.02554 17.6674 -2.37782 -0.595232 -6.63351 1.53732
lowerback 5.57748 1.52195 -2.6406
upperback -0.0192546 1.89011 1.0377
thorax -3.26865 0.991092 2.39467
lowerneck -17.8147 -3.61872 -8.67399
upperneck 23.861 -3.84488 4.86723
head 10.9249 -1.95539 2.65453
rclavicle 2.35808e-014 2.38542e-015
rhumerus -28.1291 -10.9956 -82.3185
rradius 32.389
rwrist 7.21646
rhand -12.2334 6.76829
rfingers 7.12502
rthumb 13.8321 -22.7518
lclavicle 2.35808e-014 2.38542e-015
lhumerus -31.788 10.5553 85.6398
lradius 22.6605
lwrist -11.7673
lhand -14.9377 25.053
lfingers 7.12502
lthumb 11.2248 54.7327
rfemur -10.5847 -2.15049 18.2683
rtibia 59.9958
rfoot 4.56752 0.585694
rtoes 5.46601
lfemur -14.815 -0.253346 -26.7479
ltibia 21.0014
lfoot -3.31921 -3.5555
ltoes 7.05789
231
root -9.0142 17.6615 -2.2629 -0.810913 -6.46419 1.84909
lowerback 5.96837 1.4107 -3.06301
upperback -0.0840187 1.70292 1.05891
thorax -3.55716 0.910262 2.66145
lowerneck -17.4799 -3.51627 -8.85241
upperneck 23.5936 -3.67142 4.87105
head 10.752 -1.89354 2.71037
rclavicle -1.28216e-014 -1.98785e-015
rhumerus -28.4386 -10.637 -82.2671
rradius 32.3247
rwrist 7.41612
rhand -10.6587 6.09276
rfingers 7.12502
rthumb 15.3493 -23.3175
lclavicle -1.28216e-014 -1.98785e-015
lhumerus -31.6851 10.4669 85.7249
lradius 22.8354
lwrist -11.9133
lhand -14.8067 25.1249
lfingers 7.12502
lthumb 11.3512 54.7976
rfemur -11.645 -2.45172 17.7866
rtibia 61.5429
rfoot 3.01919 -1.4124
rtoes 4.67383
lfemur -14.2658 -0.02104 -27.2368
ltibia 21.0966
lfoot -4.01524 -3.66181
ltoes 9.24774
232
root -9.00129 17.6552 -2.15334 -0.826659 -6.18102 1.9772
lowerback 6.22131 1.27654 -3.20976
upperback -0.143427 1.50506 1.05103
thorax -3.75088 0.818416 2.74925
lowerneck -17.5163 -3.48298 -8.98108
upperneck 23.4041 -3.59879 4.95148
head 10.6879 -1.85946 2.769
rclavicle 1.10574e-015 1.59028e-015
rhumerus -28.5228 -10.4904 -82.3436
rradius 32.3949
rwrist 8.00753
rhand -9.55367 4.05172
rfingers 7.12502
rthumb 16.4134 -25.2739
lclavicle 1.10574e-015 1.59028e-015
lhumerus -31.4517 10.285 85.7574
lradius 23.2359
lwrist -12.0777
lhand -14.0575 25.5671
lfingers 7.12502
lthumb 12.0736 55.1988
rfemur -12.7963 -2.83604 17.4757
rtibia 62.951
rfoot 1.71392 -2.905
rtoes 7.41196
lfemur -13.8689 0.00736655 -27.5184
ltibia 21.0931
lfoot -4.48727 -3.90449
ltoes 9.64959
